# xmcd
#
# Track frame offsets:
#	150
#	25984
#	46845
#	66506
#	85651
#	104173
#	135970
# Disc length: 2041 seconds
# Revision: 1
# Processed by: cddbd v1.5.1PL2 Copyright (c) Steve Scherf et al.
#
# Submitted via: libkcddb 0.21
#
DISCID=5907f707
DTITLE=Bowmanuv vacek - Barvirna
DYEAR=2001
DGENRE=Blues
TTITLE0=Hrob
TTITLE1=Noname
TTITLE2=Dest pada
TTITLE3=Revolution
TTITLE4=El Puerto
TTITLE5=Kavarna
TTITLE6=Dixie
EXTD=
EXTT0=
EXTT1=
EXTT2=
EXTT3=
EXTT4=
EXTT5=
EXTT6=
PLAYORDER=
